o Rumput
v -1.442024 1.903532 -6.375018
v -2.784897 1.903532 -8.151266
v -1.442024 -0.192592 -6.375018
v -2.784897 -0.192592 -8.151266
v -2.506716 1.809594 -7.320135
v -2.644056 1.579054 -9.322220
v -2.491864 -0.079482 -7.103627
v -2.629204 -0.310022 -9.105711
v -0.426009 1.805751 -6.157181
v -2.591555 2.242380 -7.103135
v -0.802660 -0.418770 -6.321710
v -2.968205 0.017858 -7.267663
v -1.442024 1.903532 -6.375018
v -2.784897 1.903532 -8.151266
v -1.442024 -0.192592 -6.375018
v -2.784897 -0.192592 -8.151266
v -2.506716 1.809594 -7.320135
v -2.644056 1.579054 -9.322220
v -2.491864 -0.079482 -7.103627
v -2.629204 -0.310022 -9.105711
v -0.426009 1.805751 -6.157181
v -2.591555 2.242380 -7.103135
v -0.802660 -0.418770 -6.321710
v -2.968205 0.017858 -7.267663
vt -0.000000 1.000000
vt 0.000000 -0.000000
vt 1.000000 0.000000
vt 1.000000 1.000000
vt -0.000000 1.000000
vt 0.000000 -0.000000
vt 1.000000 0.000000
vt 1.000000 1.000000
vt -0.000000 1.000000
vt 0.000000 -0.000000
vt 1.000000 0.000000
vt 1.000000 1.000000
vt -0.000000 1.000000
vt 1.000000 1.000000
vt 1.000000 0.000000
vt 0.000000 -0.000000
vt -0.000000 1.000000
vt 1.000000 1.000000
vt 1.000000 0.000000
vt 0.000000 -0.000000
vt -0.000000 1.000000
vt 1.000000 1.000000
vt 1.000000 0.000000
vt 0.000000 -0.000000
vn 0.797700 0.000000 -0.603100
vn 0.997700 0.000000 -0.068400
vn 0.400300 0.000000 -0.916400
vn -0.797700 0.000000 0.603100
vn -0.997700 0.000000 0.068400
vn -0.400300 -0.000000 0.916400
#usemtl Rumput01
#s off
f 1/1/1 3/2/1 4/3/1 2/4/1
f 5/5/2 7/6/2 8/7/2 6/8/2
f 9/9/3 11/10/3 12/11/3 10/12/3
f 13/13/4 14/14/4 16/15/4 15/16/4
f 17/17/5 18/18/5 20/19/5 19/20/5
f 21/21/6 22/22/6 24/23/6 23/24/6